<svg width="514" height="356" viewBox="0 0 514 356" fill="none" xmlns="http://www.w3.org/2000/svg">
<path d="M233.267 17.2C224.067 26.6667 212.467 40 207.267 46.8C197.933 59.4667 183.667 82.4 184.467 83.2C184.733 83.4667 200.067 83.8667 218.333 84.1333L251.667 84.6667L252.067 42.2667C252.2 18.9333 251.8 -1.45882e-05 251.267 -1.45882e-05C250.6 -1.45882e-05 242.467 7.73332 233.267 17.2Z" fill="#6CC070"/>
<path d="M265.667 42.6667V85.3333H299C317.4 85.3333 332.333 84.9333 332.333 84.4C332.333 81.7333 317.533 57.4667 308.2 45.0667C297.933 31.2 269.267 5.72205e-06 266.867 5.72205e-06C266.2 5.72205e-06 265.667 18.8 265.667 42.6667Z" fill="#6CC070"/>
<path d="M211.667 4.66666C179.8 13.0667 151.933 29.4667 129 53.4667C119.4 63.4667 105.667 80.9333 105.667 83.2C105.667 83.6 119.933 84 137.4 84H169L172.333 77.0667C181.667 57.8667 199.267 33.4667 217.533 14.4C231.8 -0.533338 231.667 -0.666671 211.667 4.66666Z" fill="#6CC070"/>
<path d="M289.667 2.39999C289.667 2.93332 291.8 5.59999 294.467 8.13332C309.533 22.4 331 52 343 75.0667L349 86.6667H380.067C397.8 86.6667 411 86.1333 411 85.4667C411 84.8 407.267 79.2 402.733 73.0667C378.2 39.8667 345.8 16.9333 308.2 6.26665C292.333 1.73332 289.667 1.19999 289.667 2.39999Z" fill="#6CC070"/>
<path d="M1.13325 117.6C0.733252 121.467 0.333252 150.267 0.333252 181.6V238.667H12.3333H24.3333L24.4666 220.933C24.5999 211.333 25.1333 190.8 25.5333 175.6L26.3333 147.733L51.5333 193.067L76.7333 238.267L89.5333 239.067C96.5999 239.467 102.733 239.333 103.267 238.8C103.667 238.4 104.333 209.6 104.6 174.933L105 112H92.7333H80.3333L80.1999 136.267C80.0666 149.733 79.6666 169.467 79.1333 180.267L78.3333 199.733L56.0666 159.6C43.7999 137.467 32.4666 117.333 30.9999 114.933L28.3333 110.667H15.2666H2.06659L1.13325 117.6Z" fill="#6CC070"/>
<path d="M130.6 144.267C130.067 162 129.667 190.667 129.667 208.133V239.867L177.4 240.267C203.533 240.533 225.133 240.667 225.267 240.667C225.4 240.667 225.667 235.6 225.933 229.333L226.333 218L191.4 217.6L156.333 217.333V200.667V184H187.667H219V173.333V162.667H188.467C171.533 162.667 157.533 162.133 157.133 161.467C156.733 160.8 156.733 154.533 157.267 147.333L158.067 134.4L191.267 135.333L224.333 136.267V125.067V113.733L195.4 112.933C179.4 112.4 158.467 112 148.867 112H131.4L130.6 144.267Z" fill="#6CC070"/>
<path d="M446.2 114C435.667 116.267 430.333 119.067 423.267 125.733C412.467 136.267 409.267 153.867 415.533 167.6C420.467 178 429.667 182.933 459 190.667C483.933 197.2 488.333 200 488.333 209.067C488.333 215.467 486.2 218.533 479.667 221.467C472.867 224.533 455.533 225.2 449 222.667C443.267 220.533 437.933 215.067 436.2 209.467C435.267 206.8 434.067 204.267 433.4 203.867C432.6 203.333 427 202.933 420.733 202.8L409.267 202.533L410.067 208.667C413.667 234.267 436.067 248.533 469 246.267C488.733 244.933 503.267 237.067 509.933 224.133C513.133 218.133 513.667 215.467 513.667 206.8C513.533 184.8 504.867 177.067 470.067 168C450.467 162.8 440.6 159.067 439 155.867C435.533 149.467 439.267 139.467 446.333 136.533C448.867 135.467 454.733 134.667 459.267 134.667C473 134.8 482.867 140.933 485 150.667L485.933 154.667H498.467C510.733 154.667 511 154.533 511 151.6C511 144.8 506.867 134.8 501.533 128.8C494.467 120.667 486.733 116.4 475.533 114C464.467 111.6 457 111.6 446.2 114Z" fill="#6CC070"/>
<path d="M239 114.133C239 114.533 242.6 128.4 247.133 145.067C251.533 161.733 256.867 181.6 258.867 189.333C261 197.067 264.867 211.867 267.667 222.4L272.733 241.467L285.533 241.067L298.333 240.667L308.333 193.067C313.8 166.933 318.6 145.2 319 144.8C319.4 144.4 323 160.8 326.867 181.067C330.733 201.333 335 223.067 336.2 229.333L338.467 240.667L343.667 241.6C346.6 242.133 352.333 242.533 356.467 242.533L363.8 242.667L382.067 179.6C392.2 145.067 400.333 116.267 400.333 115.6C400.333 115.067 394.333 114.667 387 114.667C379.667 114.667 373.667 114.933 373.667 115.2C373.667 116.4 352.2 204.533 351.8 204.933C351.533 205.2 349.4 195.067 347 182.4C344.6 169.733 341 150.267 338.867 139.333C336.733 128.267 335 118.4 335 117.067C335 115.2 333 114.8 321.4 114.4C313.8 114.133 307.133 114.267 306.6 114.667C306.067 115.2 301.4 135.467 296.333 159.867C291.4 184.267 287 204.4 286.733 204.8C286.467 205.067 281.8 185.067 276.467 160.267C271.133 135.6 266.467 114.933 266.067 114.267C265.4 113.2 239 112.933 239 114.133Z" fill="#6CC070"/>
<path d="M104.333 270.533C104.333 273.2 119.8 293.333 129.4 303.067C147.667 321.733 167.133 334.8 191.133 344.4C201.933 348.8 222.867 354.667 227.533 354.667C228.867 354.667 224.6 348.933 216.867 340.267C200.467 322 186.733 303.067 176.867 285.333C172.6 277.6 168.467 270.933 167.667 270.4C165.667 268.933 104.333 269.067 104.333 270.533Z" fill="#6CC070"/>
<path d="M187.133 276.267C196.333 294.667 216.867 321.6 236.067 340.4L247.933 352.133L248.733 339.867C249.267 333.067 249.667 314.8 249.667 299.067V270.667H217H184.333L187.133 276.267Z" fill="#6CC070"/>
<path d="M262.733 311.2C262.467 334.667 262.867 352 263.533 352C266.067 352 297.533 318.667 307.267 305.733C316.867 292.933 329.133 273.6 328.067 272.667C327.933 272.533 313.133 271.867 295.4 271.333L263.133 270.4L262.733 311.2Z" fill="#6CC070"/>
<path d="M339.533 280.933C327.667 302.533 312.867 322.133 292.467 342.933L279.933 355.867L285.133 355.2C329 348.8 372.867 322.533 399.667 286.8C404.467 280.533 408.333 274.533 408.333 273.733C408.333 272.4 401.133 272 376.467 272H344.6L339.533 280.933Z" fill="#6CC070"/>
</svg>
